<svg xmlns="http://www.w3.org/2000/svg" version="1.1" xmlns:xlink="http://www.w3.org/1999/xlink" xmlns:svgjs="http://svgjs.dev/svgjs" width="1500" height="1500" viewBox="0 0 1500 1500"><g transform="matrix(1,0,0,1,-0.21332335329316265,-0.21332335329350371)"><svg viewBox="0 0 334 334" data-background-color="#ffffff" preserveAspectRatio="xMidYMid meet" height="1500" width="1500" xmlns="http://www.w3.org/2000/svg" xmlns:xlink="http://www.w3.org/1999/xlink"><g id="tight-bounds" transform="matrix(1,0,0,1,0.04749999999998522,0.04750000000001364)"><svg viewBox="0 0 333.90454557049503 333.90454557049503" height="333.90454557049503" width="333.90454557049503"><g><svg></svg></g><g><svg viewBox="0 0 333.90454557049503 333.90454557049503" height="333.90454557049503" width="333.90454557049503"><g><path d="M0 166.952c0-92.205 74.747-166.952 166.952-166.952 92.205 0 166.952 74.747 166.953 166.952 0 92.205-74.747 166.952-166.953 166.953-92.205 0-166.952-74.747-166.952-166.953zM166.952 326.775c88.267 0 159.822-71.555 159.823-159.823 0-88.267-71.555-159.822-159.823-159.822-88.267 0-159.822 71.555-159.822 159.822 0 88.267 71.555 159.822 159.822 159.823z" data-fill-palette-color="tertiary" fill="#8d021f" stroke="transparent"></path><ellipse rx="160.27418187383762" ry="160.27418187383762" cx="166.95227278524752" cy="166.95227278524752" fill="#8d021f" stroke="transparent" stroke-width="0" fill-opacity="1" data-fill-palette-color="tertiary"></ellipse></g><g transform="matrix(1,0,0,1,110.13421497068813,71.17305217166896)"><svg viewBox="0 0 113.63611562911876 191.55844122715712" height="191.55844122715712" width="113.63611562911876"><g><svg viewBox="0 0 113.63611562911876 191.55844122715712" height="191.55844122715712" width="113.63611562911876"><g><svg viewBox="0 0 170.1839823896636 286.882195927861" height="191.55844122715712" width="113.63611562911876"><g transform="matrix(1,0,0,1,0,95.32375470070387)"><svg viewBox="0 0 170.1839823896636 191.55844122715712" height="191.55844122715712" width="170.1839823896636"><g id="textblocktransform"><svg viewBox="0 0 170.1839823896636 191.55844122715712" height="191.55844122715712" width="170.1839823896636" id="textblock"><g><svg viewBox="0 0 170.1839823896636 191.55844122715712" height="191.55844122715712" width="170.1839823896636"><g transform="matrix(1,0,0,1,0,0)"><svg width="170.1839823896636" viewBox="3 -35.4 31.450000000000003 35.4" height="191.55844122715712" data-palette-color="#ffffff"><path d="M13 0L3.5 0 3.5-27.35 3-32.35 3.5-35.4 12.5-35.4 12.5-21.85 24.95-21.85 24.95-35.4 33.95-35.4 33.95-16.6 34.45-13.15 34.45 0 24.95 0 24.95-13.2 12.5-13.2 12.5-10.2 13 0Z" opacity="1" transform="matrix(1,0,0,1,0,0)" fill="#ffffff" class="wordmark-text-0" data-fill-palette-color="quaternary" id="text-0"></path></svg></g></svg></g></svg></g></svg></g><g transform="matrix(1,0,0,1,32.50514063642574,0)"><svg viewBox="0 0 105.17370111681213 67.3707807230722" height="67.3707807230722" width="105.17370111681213"><g><svg xmlns="http://www.w3.org/2000/svg" xmlns:xlink="http://www.w3.org/1999/xlink" version="1.1" x="0" y="0" viewBox="111.70000000000002 20.88487259589038 92.91010367325578 59.51512740410963" enable-background="new 109 0 100 100" xml:space="preserve" height="67.3707807230722" width="105.17370111681213" class="icon-icon-0" data-fill-palette-color="quaternary" id="icon-0"><g fill="#ffffff" data-fill-palette-color="quaternary"><path d="M138.2 33.6c3.9-1.7 2.9-4.2 4.6-5.1 1.1-0.6 1.9 0.3 2.6 0.5-0.1 0.4-0.1 0.8-0.2 1.3-0.3 5.5 3.9 10.2 9.4 10.5 5.5 0.3 10.2-3.9 10.5-9.4 0.3-5.5-3.9-10.2-9.4-10.5-3.7-0.2-7 1.6-8.9 4.4-0.5-1-1.5-2.5-3.1-3-2.8-0.9-6 0.4-7.7 2.6-1.7 2.2-1.7 6.6-6.4 7.6C127.6 33 134.7 35.2 138.2 33.6z" fill="#ffffff" data-fill-palette-color="quaternary"></path><path d="M176.9 67.4c0-3-2.3-4.4-5.2-4.4h-15.9L149 44.7l0 0c-1-3.2-4-5.6-7.6-5.6-1.3 0-2.5 0.3-3.6 0.9l0 0c-14.5 7.3-22.9 20.7-26.1 40.4l19 0c0.5-8.3 2-18 8.8-23.8l7.8 11.7 0 0c0.9 1.7 2.7 3 4.7 3h19.6C174.7 71.2 176.9 70.4 176.9 67.4z" fill="#ffffff" data-fill-palette-color="quaternary"></path></g><path d="M181.5 76.3c-0.4-0.8-2.3-4-6.2-4-4.4 0-6.2 4.1-6.3 4.2-0.1 0.3-0.1 0.7 0.1 0.9 0.2 0.3 0.5 0.5 0.8 0.5h10.7c0 0 0 0 0 0 0.6 0 1-0.4 1-1C181.7 76.7 181.6 76.4 181.5 76.3z" fill="#ffffff" data-fill-palette-color="quaternary"></path><path d="M202.5 28.5c-1.8-0.8-3.8 0.1-4.6 1.9l-15.1 35.4c-0.8 1.8 0.1 3.8 1.9 4.6 0.4 0.2 0.9 0.3 1.4 0.3 1.4 0 2.7-0.8 3.2-2.1l2.7-6.4 5.1 10.6H190c-1.4 0-2.5 1.1-2.5 2.5s1.1 2.5 2.5 2.5h11.1c0.9 0 1.7-0.4 2.1-1.2 0.5-0.7 0.5-1.6 0.1-2.4L194.6 56l9.7-22.9C205.1 31.3 204.3 29.3 202.5 28.5z" fill="#ffffff" data-fill-palette-color="quaternary"></path></svg></g></svg></g><g></g></svg></g></svg></g></svg></g></svg></g><defs></defs></svg><rect width="333.90454557049503" height="333.90454557049503" fill="none" stroke="none" visibility="hidden"></rect></g></svg></g></svg>